<?xml version="1.0" standalone="no"?>
<!DOCTYPE svg PUBLIC "-//W3C//DTD SVG 20010904//EN"
 "http://www.w3.org/TR/2001/REC-SVG-20010904/DTD/svg10.dtd">
<svg version="1.0" xmlns="http://www.w3.org/2000/svg"
 width="856.000000pt" height="856.000000pt" viewBox="0 0 856.000000 856.000000"
 preserveAspectRatio="xMidYMid meet">
<metadata>
Created by potrace 1.14, written by Peter Selinger 2001-2017
</metadata>
<g transform="translate(0.000000,856.000000) scale(0.100000,-0.100000)"
fill="#000000" stroke="none">
<path d="M1727 7244 c-1 -1 -29 -5 -62 -8 -33 -4 -75 -9 -93 -11 -37 -5 -148
-32 -172 -42 -8 -3 -18 -7 -22 -8 -5 -2 -9 -3 -10 -5 -2 -1 -10 -3 -19 -5 -42
-8 -263 -126 -289 -155 -3 -3 -27 -23 -55 -45 -137 -110 -248 -260 -328 -445
-21 -47 -55 -149 -61 -180 -3 -14 -10 -50 -16 -80 -20 -98 -24 -189 -24 -542
l-1 -348 -30 -1 c-16 0 -145 -1 -284 -2 l-255 -2 0 -188 -1 -188 283 3 c182 2
282 -1 283 -7 1 -5 2 -733 3 -1617 1 -1067 -2 -1609 -9 -1610 -5 0 -127 -2
-270 -4 -143 -1 -267 -2 -275 -3 -13 -1 -15 -27 -14 -173 l0 -173 53 -5 c29
-3 55 -2 57 2 3 5 9 6 14 3 8 -5 434 -8 465 -4 6 1 14 1 19 0 10 -2 447 -2
461 0 6 1 14 1 19 0 12 -3 207 -3 221 0 6 1 14 0 20 -1 12 -2 127 -2 140 0 6
2 14 2 19 1 13 -3 129 -3 141 -1 6 1 14 1 20 0 22 -4 136 -2 141 2 3 3 19 3
37 -1 18 -3 46 -5 64 -3 l31 3 1 174 c0 127 -3 174 -12 177 -7 2 -168 3 -359
3 -307 -1 -347 0 -350 14 -6 27 -2 3210 4 3216 3 3 196 6 430 5 l424 0 0 189
1 189 -381 0 c-210 0 -403 1 -431 1 l-50 1 1 402 c1 473 4 514 48 696 42 170
180 353 317 418 62 30 147 55 199 60 56 5 189 5 246 -1 123 -12 150 -30 89
-59 -60 -29 -138 -125 -151 -188 -46 -227 11 -385 171 -470 61 -33 80 -37 175
-42 159 -7 294 71 368 213 42 82 55 257 27 371 -5 19 -9 37 -10 40 -5 23 -42
93 -67 130 -27 38 -57 67 -140 135 -42 34 -201 108 -262 121 -102 23 -110 25
-146 30 -81 12 -334 25 -343 18z"/>
<path d="M6040 7228 c-19 -4 -51 -10 -70 -13 -19 -3 -46 -7 -60 -10 -14 -3
-40 -8 -59 -11 -18 -3 -43 -8 -55 -10 -11 -2 -37 -7 -56 -10 -19 -4 -44 -8
-55 -11 -11 -2 -56 -10 -100 -18 -44 -8 -91 -17 -105 -20 -14 -3 -63 -12 -110
-21 -47 -9 -92 -18 -101 -19 -9 -2 -34 -6 -55 -9 -22 -4 -84 -15 -139 -26 -55
-11 -110 -21 -122 -23 -12 -2 -26 -6 -29 -10 -7 -7 -8 -256 -2 -263 4 -3 30
-8 102 -19 21 -4 48 -9 60 -11 11 -2 62 -11 111 -20 50 -8 101 -17 115 -20 28
-6 64 -11 133 -20 26 -4 48 -12 48 -18 1 -6 2 -427 3 -934 1 -1013 2 -997 -53
-888 -39 74 -102 165 -163 231 -52 57 -162 155 -208 185 -12 8 -28 20 -34 25
-41 37 -220 119 -306 141 -167 42 -230 49 -440 49 -182 -1 -250 -7 -355 -30
-38 -9 -74 -17 -80 -18 -5 -2 -16 -6 -22 -10 -7 -5 -13 -6 -13 -3 0 2 -36 -8
-79 -24 -256 -94 -467 -246 -643 -466 -63 -78 -152 -214 -140 -214 4 0 2 -4
-5 -8 -35 -22 -172 -379 -197 -514 -3 -12 -5 -24 -7 -25 -2 -4 -4 -11 -14 -68
-5 -27 -9 -52 -10 -55 -6 -27 -15 -86 -21 -135 -3 -33 -8 -68 -9 -77 -18 -94
-25 -544 -12 -713 13 -161 22 -246 33 -300 3 -11 7 -36 10 -55 3 -19 9 -51 14
-70 5 -19 11 -47 14 -61 12 -73 79 -284 113 -359 45 -97 91 -189 116 -227 15
-24 27 -45 27 -48 0 -2 7 -13 14 -22 8 -10 33 -43 55 -73 59 -79 181 -202 259
-261 37 -28 74 -56 83 -63 16 -13 149 -90 159 -92 3 0 30 -12 60 -26 86 -39
208 -79 280 -92 19 -3 46 -8 60 -11 26 -5 91 -14 150 -21 50 -5 287 -5 340 0
46 5 107 14 148 22 12 2 34 6 50 9 50 10 186 56 242 83 53 25 160 89 170 101
3 4 19 17 35 30 123 94 269 272 331 404 11 23 24 37 34 35 13 -3 15 -44 15
-346 l0 -342 40 5 c22 3 47 8 55 10 8 2 31 7 50 10 19 3 53 10 75 15 22 5 56
12 75 15 19 3 80 14 135 25 55 11 111 22 125 24 14 3 34 7 45 9 11 2 38 8 60
12 43 8 66 12 105 20 14 3 41 8 60 11 19 4 44 9 55 11 11 2 34 7 50 9 17 3 73
14 125 25 52 10 105 19 118 19 12 0 22 6 23 13 1 6 2 65 3 130 2 116 -1 129
-32 133 -36 6 -159 27 -177 31 -11 2 -33 6 -50 8 -16 3 -41 7 -55 10 -14 3
-41 7 -60 11 -19 3 -55 9 -80 14 -25 5 -61 11 -80 14 l-35 6 0 2670 1 2670
-26 -2 c-14 -1 -41 -6 -60 -10z m-1446 -2212 c49 -4 92 -8 95 -10 3 -2 22 -7
41 -10 32 -5 44 -8 98 -20 96 -22 265 -104 359 -175 152 -112 254 -267 299
-452 9 -36 11 -1825 2 -1899 -4 -36 -11 -72 -14 -80 -4 -8 -9 -24 -10 -35 -5
-29 -85 -185 -95 -185 -4 0 -10 -8 -14 -19 -8 -27 -112 -126 -186 -178 -89
-63 -227 -127 -339 -157 -141 -37 -209 -47 -335 -48 -94 0 -192 6 -235 16 -14
3 -41 8 -60 11 -89 12 -240 75 -350 146 -54 34 -180 152 -225 209 -31 40 -115
184 -115 198 0 6 -4 12 -10 12 -5 0 -10 7 -10 15 0 8 -4 23 -9 33 -22 44 -48
117 -41 117 2 0 -2 9 -8 21 -6 11 -13 32 -15 45 -3 13 -10 42 -15 64 -19 70
-27 130 -38 270 -8 107 -8 918 0 990 17 139 31 220 52 295 8 30 16 62 18 70 8
31 49 128 83 195 99 195 253 354 433 449 61 32 197 80 258 91 15 3 37 7 49 9
12 3 57 8 100 11 43 4 79 8 80 9 2 1 17 1 35 0 18 -1 73 -5 122 -8z"/>
<path d="M7970 2268 c-53 -11 -58 -12 -90 -25 -14 -6 -28 -9 -32 -6 -5 2 -8 1
-8 -4 0 -4 -12 -14 -27 -21 -76 -34 -168 -155 -199 -261 -23 -79 -23 -237 1
-321 23 -84 94 -191 151 -231 43 -29 154 -83 154 -75 0 3 15 0 33 -5 43 -13
197 -12 249 1 43 11 63 19 127 49 41 19 127 104 148 146 9 16 19 32 23 35 3 3
15 32 26 65 14 45 19 88 19 175 0 122 -16 197 -55 255 -11 17 -25 38 -32 49
-47 68 -144 137 -228 160 -71 20 -193 26 -260 14z"/>
</g>
</svg>
